<?xml version="1.0" encoding="UTF-8"?>
<svg version="1.1" xmlns="http://www.w3.org/2000/svg" width="512" height="512">
<path d="M0 0 C2.59729509 2.31710743 5.13711895 4.68292023 7.66015625 7.08105469 C10.16735285 9.47708274 10.16735285 9.47708274 12.84765625 11.55371094 C16.45412744 14.45677121 19.22241494 17.93649032 22.2109375 21.45605469 C23.02691406 22.37257813 23.84289062 23.28910156 24.68359375 24.23339844 C32.45702821 33.03968675 38.9758093 42.51331495 45.2109375 52.45605469 C45.62085938 53.10380859 46.03078125 53.7515625 46.453125 54.41894531 C57.8156705 72.62570866 65.37078144 93.61351557 70.2109375 114.45605469 C70.41976563 115.33438965 70.62859375 116.21272461 70.84375 117.11767578 C82.44426261 168.33797709 72.03795741 226.14117488 44.2109375 270.45605469 C37.31322578 281.105483 29.59270594 290.94721692 21.2109375 300.45605469 C20.49035156 301.29910156 19.76976562 302.14214844 19.02734375 303.01074219 C14.7500285 307.96342301 10.21540136 312.25298709 5.2109375 316.45605469 C4.29957031 317.266875 3.38820313 318.07769531 2.44921875 318.91308594 C-6.36051964 326.69421865 -15.8398852 333.21688947 -25.7890625 339.45605469 C-26.43681641 339.86597656 -27.08457031 340.27589844 -27.75195312 340.69824219 C-70.66918476 367.48218989 -127.57675382 375.78148201 -176.84179688 365.140625 C-213.67928355 356.58427041 -245.46638158 340.4216876 -273.7890625 315.45605469 C-275.05363281 314.37517578 -275.05363281 314.37517578 -276.34375 313.27246094 C-281.29643082 308.99514568 -285.5859949 304.46051854 -289.7890625 299.45605469 C-290.59988281 298.5446875 -291.41070312 297.63332031 -292.24609375 296.69433594 C-300.02722646 287.88459755 -306.54989729 278.40523198 -312.7890625 268.45605469 C-313.40394531 267.48442383 -313.40394531 267.48442383 -314.03125 266.49316406 C-325.3937955 248.28640071 -332.94890644 227.2985938 -337.7890625 206.45605469 C-337.99789062 205.57771973 -338.20671875 204.69938477 -338.421875 203.79443359 C-350.02238761 152.57413228 -339.61608241 94.77093449 -311.7890625 50.45605469 C-304.89135078 39.80662638 -297.17083094 29.96489246 -288.7890625 20.45605469 C-288.06847656 19.61300781 -287.34789062 18.76996094 -286.60546875 17.90136719 C-282.3281535 12.94868637 -277.79352636 8.65912229 -272.7890625 4.45605469 C-271.87769531 3.64523438 -270.96632813 2.83441406 -270.02734375 1.99902344 C-261.21760536 -5.78210928 -251.7382398 -12.3047801 -241.7890625 -18.54394531 C-241.14130859 -18.95386719 -240.49355469 -19.36378906 -239.82617188 -19.78613281 C-167.09379365 -65.17722959 -64.49038523 -55.65463922 0 0 Z M-268.7890625 24.45605469 C-269.56894531 25.18308594 -270.34882813 25.91011719 -271.15234375 26.65917969 C-297.24403644 51.68495953 -314.14843678 86.48094236 -321.7890625 121.45605469 C-321.95277344 122.16826172 -322.11648438 122.88046875 -322.28515625 123.61425781 C-327.86922316 148.88100684 -326.81592813 178.43417117 -320.7890625 203.45605469 C-320.58007324 204.34454102 -320.37108398 205.23302734 -320.15576172 206.1484375 C-308.13157115 255.7763701 -275.96307158 297.96217416 -232.76708984 324.70800781 C-189.13431157 350.94526877 -137.17690879 358.55366123 -87.75 346.72900391 C-37.29564588 333.89766161 4.50495548 301.91874609 31.59375 257.61230469 C42.37114472 239.43793031 49.36455405 219.96929799 54.2109375 199.45605469 C54.40445801 198.65006836 54.59797852 197.84408203 54.79736328 197.01367188 C60.46163505 172.0519241 59.26745321 142.15730777 53.2109375 117.45605469 C52.96956055 116.46508789 52.72818359 115.47412109 52.47949219 114.453125 C39.95693258 64.72517448 8.06202791 21.9835149 -35.7890625 -4.54394531 C-111.75393886 -49.16798155 -205.63740088 -35.75624892 -268.7890625 24.45605469 Z " fill="#e2e2e2" transform="translate(389.7890625,95.5439453125)"/>
<path d="M0 0 C1.27875 0.00257812 2.5575 0.00515625 3.875 0.0078125 C5.15375 0.00523438 6.4325 0.00265625 7.75 0 C10.875 0.1328125 10.875 0.1328125 11.875 1.1328125 C11.97108663 2.77771799 11.99687787 4.42676941 11.99525452 6.07447815 C11.99731651 7.67943649 11.99731651 7.67943649 11.99942017 9.31681824 C11.99582489 10.50076675 11.99222961 11.68471527 11.98852539 12.90454102 C11.98867142 14.1433905 11.98881744 15.38223999 11.9889679 16.65863037 C11.98838892 20.06551083 11.98335959 23.47233134 11.97639394 26.87920117 C11.97015993 30.43598076 11.96955656 33.99276108 11.96836853 37.54954529 C11.96525535 44.28917832 11.95704215 51.02879521 11.94701904 57.76842111 C11.93585748 65.43939648 11.93034735 73.11037261 11.92532361 80.78135407 C11.91485952 96.56518291 11.89726035 112.34899563 11.875 128.1328125 C12.52860221 128.13189071 13.18220442 128.13096891 13.85561275 128.13001919 C29.73687951 128.10796408 45.61814096 128.09140101 61.49941921 128.08100033 C69.17938727 128.07583735 76.85934513 128.06879461 84.53930664 128.05737305 C91.23077989 128.04742627 97.92224576 128.04095909 104.6137262 128.03872401 C108.15895601 128.03741689 111.70416468 128.03433097 115.24938774 128.02708244 C119.20068645 128.0190687 123.1519642 128.01882136 127.10327148 128.01928711 C128.28722 128.01569183 129.47116852 128.01209656 130.69099426 128.00839233 C131.76096649 128.009767 132.83093872 128.01114166 133.93333435 128.01255798 C134.86895423 128.01163619 135.80457411 128.0107144 136.7685461 128.00976467 C138.875 128.1328125 138.875 128.1328125 139.875 129.1328125 C139.97409302 131.46441305 140.00470504 133.79911192 140 136.1328125 C140.00257813 137.4115625 140.00515625 138.6903125 140.0078125 140.0078125 C139.875 143.1328125 139.875 143.1328125 138.875 144.1328125 C137.23009451 144.22889913 135.58104309 144.25469037 133.93333435 144.25306702 C132.86336212 144.25444168 131.79338989 144.25581635 130.69099426 144.25723267 C129.50704575 144.25363739 128.32309723 144.25004211 127.10327148 144.24633789 C125.864422 144.24648392 124.62557251 144.24662994 123.34918213 144.2467804 C119.94230167 144.24620142 116.53548116 144.24117209 113.12861133 144.23420644 C109.57183174 144.22797243 106.01505142 144.22736906 102.45826721 144.22618103 C95.71863418 144.22306785 88.97901729 144.21485465 82.23939139 144.20483154 C74.56841602 144.19366998 66.89743989 144.18815985 59.22645843 144.18313611 C43.44262959 144.17267202 27.65881687 144.15507285 11.875 144.1328125 C11.87638269 145.11321581 11.87638269 145.11321581 11.87779331 146.11342525 C11.89984842 161.99469201 11.91641149 177.87595346 11.92681217 193.75723171 C11.93197515 201.43719977 11.93901789 209.11715763 11.95043945 216.79711914 C11.96038623 223.48859239 11.96685341 230.18005826 11.96908849 236.8715387 C11.97039561 240.41676851 11.97348153 243.96197718 11.98073006 247.50720024 C11.9887438 251.45849895 11.98899114 255.4097767 11.98852539 259.36108398 C11.99212067 260.5450325 11.99571594 261.72898102 11.99942017 262.94880676 C11.9980455 264.01877899 11.99667084 265.08875122 11.99525452 266.19114685 C11.99663721 267.59457667 11.99663721 267.59457667 11.99804783 269.0263586 C11.875 271.1328125 11.875 271.1328125 10.875 272.1328125 C8.54339945 272.23190552 6.20870058 272.26251754 3.875 272.2578125 C2.59625 272.26039063 1.3175 272.26296875 0 272.265625 C-3.125 272.1328125 -3.125 272.1328125 -4.125 271.1328125 C-4.22108663 269.48790701 -4.24687787 267.83885559 -4.24525452 266.19114685 C-4.24731651 264.58618851 -4.24731651 264.58618851 -4.24942017 262.94880676 C-4.24402725 261.17288399 -4.24402725 261.17288399 -4.23852539 259.36108398 C-4.23867142 258.1222345 -4.23881744 256.88338501 -4.2389679 255.60699463 C-4.23838892 252.20011417 -4.23335959 248.79329366 -4.22639394 245.38642383 C-4.22015993 241.82964424 -4.21955656 238.27286392 -4.21836853 234.71607971 C-4.21525535 227.97644668 -4.20704215 221.23682979 -4.19701904 214.49720389 C-4.18585748 206.82622852 -4.18034735 199.15525239 -4.17532361 191.48427093 C-4.16485952 175.70044209 -4.14726035 159.91662937 -4.125 144.1328125 C-4.77860221 144.13373429 -5.43220442 144.13465609 -6.10561275 144.13560581 C-21.98687951 144.15766092 -37.86814096 144.17422399 -53.74941921 144.18462467 C-61.42938727 144.18978765 -69.10934513 144.19683039 -76.78930664 144.20825195 C-83.48077989 144.21819873 -90.17224576 144.22466591 -96.8637262 144.22690099 C-100.40895601 144.22820811 -103.95416468 144.23129403 -107.49938774 144.23854256 C-111.45068645 144.2465563 -115.4019642 144.24680364 -119.35327148 144.24633789 C-120.53722 144.24993317 -121.72116852 144.25352844 -122.94099426 144.25723267 C-124.01096649 144.255858 -125.08093872 144.25448334 -126.18333435 144.25306702 C-127.58676417 144.25444971 -127.58676417 144.25444971 -129.0185461 144.25586033 C-131.125 144.1328125 -131.125 144.1328125 -132.125 143.1328125 C-132.22409302 140.80121195 -132.25470504 138.46651308 -132.25 136.1328125 C-132.25257813 134.8540625 -132.25515625 133.5753125 -132.2578125 132.2578125 C-132.125 129.1328125 -132.125 129.1328125 -131.125 128.1328125 C-129.48009451 128.03672587 -127.83104309 128.01093463 -126.18333435 128.01255798 C-125.11336212 128.01118332 -124.04338989 128.00980865 -122.94099426 128.00839233 C-121.75704575 128.01198761 -120.57309723 128.01558289 -119.35327148 128.01928711 C-117.49499725 128.01906807 -117.49499725 128.01906807 -115.59918213 128.0188446 C-112.19230167 128.01942358 -108.78548116 128.02445291 -105.37861133 128.03141856 C-101.82183174 128.03765257 -98.26505142 128.03825594 -94.70826721 128.03944397 C-87.96863418 128.04255715 -81.22901729 128.05077035 -74.48939139 128.06079346 C-66.81841602 128.07195502 -59.14743989 128.07746515 -51.47645843 128.08248889 C-35.69262959 128.09295298 -19.90881687 128.11055215 -4.125 128.1328125 C-4.12592179 127.47921029 -4.12684359 126.82560808 -4.12779331 126.15219975 C-4.14984842 110.27093299 -4.16641149 94.38967154 -4.17681217 78.50839329 C-4.18197515 70.82842523 -4.18901789 63.14846737 -4.20043945 55.46850586 C-4.21038623 48.77703261 -4.21685341 42.08556674 -4.21908849 35.3940863 C-4.22039561 31.84885649 -4.22348153 28.30364782 -4.23073006 24.75842476 C-4.2387438 20.80712605 -4.23899114 16.8558483 -4.23852539 12.90454102 C-4.24212067 11.7205925 -4.24571594 10.53664398 -4.24942017 9.31681824 C-4.2480455 8.24684601 -4.24667084 7.17687378 -4.24525452 6.07447815 C-4.24617631 5.13885827 -4.2470981 4.20323839 -4.24804783 3.2392664 C-4.0484441 -0.17774679 -3.50527589 0.14897423 0 0 Z " fill="#e2e2e2" transform="translate(252.125,119.8671875)"/>
</svg>
